# xmcd
#
# Track frame offsets: 
#        150
#        21440
#        40897
#        81277
#        100710
#        114742
#        140555
#        167807
#        198217
#        227830
#        249065
#
# Disc length: 3561 seconds
#
# Revision: 2
# Processed by: cddbd v1.5.2PL0 Copyright (c) Steve Scherf et al.
# Submitted via: ExactAudioCopy v0.95b4
#
DISCID=8b0de70b
DTITLE=Procol Harum - BBC Live In Concert
DYEAR=1974
DGENRE=Rock
TTITLE0=Conquistador
TTITLE1=Bringing Home The Bacon
TTITLE2=Whaling Stories
TTITLE3=New Lamps For Old
TTITLE4=Beyond The Pale
TTITLE5=As Strong As Samson
TTITLE6=Simple Sister
TTITLE7=The Idol
TTITLE8=Grand Hotel
TTITLE9=Butterfly Boys
TTITLE10=Nothing But The Truth
EXTD=YEAR: 1974
EXTT0=
EXTT1=
EXTT2=
EXTT3=
EXTT4=
EXTT5=
EXTT6=
EXTT7=
EXTT8=
EXTT9=
EXTT10=
PLAYORDER=
